<svg width="17" height="22" viewBox="0 0 17 22" fill="none" xmlns="http://www.w3.org/2000/svg">
<g id="Group 3">
<path id="Vector" d="M10.3374 1.8125H2.9874C2.50007 1.8125 2.03269 2.00609 1.68809 2.35069C1.3435 2.69529 1.1499 3.16266 1.1499 3.65V18.35C1.1499 18.8373 1.3435 19.3047 1.68809 19.6493C2.03269 19.9939 2.50007 20.1875 2.9874 20.1875H14.0124C14.4997 20.1875 14.9671 19.9939 15.3117 19.6493C15.6563 19.3047 15.8499 18.8373 15.8499 18.35V7.325L10.3374 1.8125Z" stroke="white" stroke-width="2" stroke-linecap="round" stroke-linejoin="round"/>
<path id="Vector_2" d="M12.1752 15.5938H4.8252" stroke="white" stroke-width="2" stroke-linecap="round" stroke-linejoin="round"/>
<path id="Vector_3" d="M12.1752 11.9187H4.8252" stroke="white" stroke-width="2" stroke-linecap="round" stroke-linejoin="round"/>
<path id="Vector_4" d="M6.6627 8.24377H5.74395H4.8252" stroke="white" stroke-width="2" stroke-linecap="round" stroke-linejoin="round"/>
<path id="Vector_5" d="M10.3374 1.8125V7.325H15.8499" stroke="white" stroke-width="2" stroke-linecap="round" stroke-linejoin="round"/>
</g>
</svg>
