<svg width="25" height="24" viewBox="0 0 25 24" fill="none" xmlns="http://www.w3.org/2000/svg">
<g id="Menu/Settings">
<path id="Vector" d="M12.4999 14.3466C13.7959 14.3466 14.8465 13.296 14.8465 12C14.8465 10.704 13.7959 9.65344 12.4999 9.65344C11.2039 9.65344 10.1533 10.704 10.1533 12C10.1533 13.296 11.2039 14.3466 12.4999 14.3466Z" stroke="white" stroke-width="2" stroke-linecap="round" stroke-linejoin="round"/>
<path id="Vector_2" d="M18.5545 14.4545C18.4456 14.7013 18.4131 14.9751 18.4613 15.2405C18.5094 15.5059 18.6359 15.7508 18.8245 15.9436L18.8736 15.9927C19.0258 16.1447 19.1465 16.3252 19.2288 16.5238C19.3112 16.7225 19.3536 16.9354 19.3536 17.1505C19.3536 17.3655 19.3112 17.5784 19.2288 17.7771C19.1465 17.9757 19.0258 18.1562 18.8736 18.3082C18.7217 18.4603 18.5412 18.581 18.3425 18.6634C18.1439 18.7457 17.931 18.7881 17.7159 18.7881C17.5009 18.7881 17.2879 18.7457 17.0893 18.6634C16.8906 18.581 16.7102 18.4603 16.5582 18.3082L16.5091 18.2591C16.3163 18.0705 16.0714 17.9439 15.8059 17.8958C15.5405 17.8477 15.2668 17.8802 15.02 17.9891C14.778 18.0928 14.5716 18.265 14.4263 18.4845C14.2809 18.704 14.2029 18.9613 14.2018 19.2245V19.3636C14.2018 19.7976 14.0294 20.2138 13.7225 20.5207C13.4157 20.8276 12.9994 21 12.5655 21C12.1315 21 11.7152 20.8276 11.4084 20.5207C11.1015 20.2138 10.9291 19.7976 10.9291 19.3636V19.29C10.9228 19.0192 10.8351 18.7565 10.6775 18.5362C10.5199 18.3159 10.2997 18.1481 10.0455 18.0545C9.79868 17.9456 9.52493 17.9131 9.25952 17.9613C8.9941 18.0094 8.74919 18.1359 8.55636 18.3245L8.50727 18.3736C8.3553 18.5258 8.17483 18.6465 7.97617 18.7288C7.77752 18.8112 7.56459 18.8536 7.34955 18.8536C7.1345 18.8536 6.92157 18.8112 6.72292 18.7288C6.52426 18.6465 6.34379 18.5258 6.19182 18.3736C6.03967 18.2217 5.91898 18.0412 5.83663 17.8425C5.75428 17.6439 5.71189 17.431 5.71189 17.2159C5.71189 17.0009 5.75428 16.7879 5.83663 16.5893C5.91898 16.3906 6.03967 16.2102 6.19182 16.0582L6.24091 16.0091C6.42953 15.8163 6.55606 15.5714 6.60419 15.3059C6.65231 15.0405 6.61982 14.7668 6.51091 14.52C6.40719 14.278 6.23498 14.0716 6.01547 13.9263C5.79596 13.7809 5.53873 13.7029 5.27545 13.7018H5.13636C4.70237 13.7018 4.28616 13.5294 3.97928 13.2225C3.6724 12.9157 3.5 12.4994 3.5 12.0655C3.5 11.6315 3.6724 11.2152 3.97928 10.9084C4.28616 10.6015 4.70237 10.4291 5.13636 10.4291H5.21C5.48081 10.4228 5.74346 10.3351 5.96379 10.1775C6.18412 10.0199 6.35195 9.79969 6.44545 9.54545C6.55437 9.29868 6.58686 9.02493 6.53873 8.75952C6.49061 8.4941 6.36408 8.24919 6.17545 8.05636L6.12636 8.00727C5.97422 7.8553 5.85352 7.67483 5.77118 7.47617C5.68883 7.27752 5.64644 7.06459 5.64644 6.84955C5.64644 6.6345 5.68883 6.42157 5.77118 6.22292C5.85352 6.02426 5.97422 5.84379 6.12636 5.69182C6.27834 5.53967 6.45881 5.41898 6.65746 5.33663C6.85611 5.25428 7.06905 5.21189 7.28409 5.21189C7.49913 5.21189 7.71207 5.25428 7.91072 5.33663C8.10937 5.41898 8.28984 5.53967 8.44182 5.69182L8.49091 5.74091C8.68374 5.92953 8.92865 6.05606 9.19406 6.10419C9.45948 6.15231 9.73322 6.11982 9.98 6.01091H10.0455C10.2874 5.90719 10.4938 5.73498 10.6392 5.51547C10.7846 5.29596 10.8626 5.03873 10.8636 4.77545V4.63636C10.8636 4.20237 11.036 3.78616 11.3429 3.47928C11.6498 3.1724 12.066 3 12.5 3C12.934 3 13.3502 3.1724 13.6571 3.47928C13.964 3.78616 14.1364 4.20237 14.1364 4.63636V4.71C14.1374 4.97328 14.2154 5.23051 14.3608 5.45002C14.5062 5.66953 14.7126 5.84174 14.9545 5.94545C15.2013 6.05437 15.4751 6.08686 15.7405 6.03873C16.0059 5.99061 16.2508 5.86408 16.4436 5.67545L16.4927 5.62636C16.6447 5.47422 16.8252 5.35352 17.0238 5.27118C17.2225 5.18883 17.4354 5.14644 17.6505 5.14644C17.8655 5.14644 18.0784 5.18883 18.2771 5.27118C18.4757 5.35352 18.6562 5.47422 18.8082 5.62636C18.9603 5.77834 19.081 5.95881 19.1634 6.15746C19.2457 6.35611 19.2881 6.56905 19.2881 6.78409C19.2881 6.99913 19.2457 7.21207 19.1634 7.41072C19.081 7.60937 18.9603 7.78984 18.8082 7.94182L18.7591 7.99091C18.5705 8.18374 18.4439 8.42865 18.3958 8.69406C18.3477 8.95948 18.3802 9.23322 18.4891 9.48V9.54545C18.5928 9.78745 18.765 9.99383 18.9845 10.1392C19.204 10.2846 19.4613 10.3626 19.7245 10.3636H19.8636C20.2976 10.3636 20.7138 10.536 21.0207 10.8429C21.3276 11.1498 21.5 11.566 21.5 12C21.5 12.434 21.3276 12.8502 21.0207 13.1571C20.7138 13.464 20.2976 13.6364 19.8636 13.6364H19.79C19.5267 13.6374 19.2695 13.7154 19.05 13.8608C18.8305 14.0062 18.6583 14.2126 18.5545 14.4545V14.4545Z" stroke="white" stroke-width="2" stroke-linecap="round" stroke-linejoin="round"/>
</g>
</svg>
