<svg width="24" height="25" viewBox="0 0 24 25" fill="none" xmlns="http://www.w3.org/2000/svg">
<g id="clarity:notification-solid" clip-path="url(#clip0_646_132)">
<path id="Vector" d="M21.8999 19.0906L21.6732 18.8906C21.0303 18.3175 20.4675 17.6605 19.9999 16.9373C19.4888 15.9392 19.1828 14.8489 19.0999 13.7306V10.4373C19.1043 8.68104 18.4672 6.98361 17.3084 5.66395C16.1495 4.34428 14.5486 3.4932 12.8065 3.27063V2.41063C12.8065 2.17459 12.7128 1.94821 12.5459 1.7813C12.379 1.6144 12.1526 1.52063 11.9165 1.52063C11.6805 1.52063 11.4541 1.6144 11.2872 1.7813C11.1203 1.94821 11.0265 2.17459 11.0265 2.41063V3.28396C9.30004 3.52258 7.71852 4.3788 6.57489 5.69403C5.43126 7.00927 4.80302 8.69439 4.80654 10.4373V13.7306C4.72357 14.8489 4.41756 15.9392 3.90654 16.9373C3.44712 17.6589 2.89333 18.3158 2.25987 18.8906L2.0332 19.0906V20.9706H21.8999V19.0906Z" fill="#656575"/>
<path id="Vector_2" d="M10.2134 21.6707C10.2718 22.0932 10.4812 22.4804 10.8029 22.7606C11.1246 23.0409 11.5368 23.1952 11.9634 23.1952C12.39 23.1952 12.8022 23.0409 13.1239 22.7606C13.4455 22.4804 13.6549 22.0932 13.7134 21.6707H10.2134Z" fill="#656575"/>
</g>
<defs>
<clipPath id="clip0_646_132">
<rect width="24" height="24" fill="white" transform="translate(0 0.33728)"/>
</clipPath>
</defs>
</svg>
